<?xml version="1.0" encoding="utf-8"?>
<!-- Generator: Adobe Illustrator 20.0.0, SVG Export Plug-In . SVG Version: 6.00 Build 0)  -->
<svg version="1.1" id="Layer_1" xmlns="http://www.w3.org/2000/svg" xmlns:xlink="http://www.w3.org/1999/xlink" x="0px" y="0px"
	 viewBox="0 0 352 448" style="enable-background:new 0 0 352 448;" xml:space="preserve">
<style type="text/css">
	.st0{display:none;}
</style>
<g id="icomoon-ignore" class="st0">
</g>
<path d="M280,64H72c-11,0-20.4,3.9-28.2,11.8S32,93,32,104v208c0,11,3.9,20.4,11.8,28.2S61,352,72,352h208c11,0,20.4-3.9,28.2-11.8
	S320,323,320,312V104c0-11-3.9-20.4-11.8-28.2S291,64,280,64z M352,104v208c0,19.8-7,36.8-21.1,50.9S299.8,384,280,384H72
	c-19.8,0-36.8-7-50.9-21.1S0,331.8,0,312V104c0-19.8,7-36.8,21.1-50.9S52.2,32,72,32h208c19.8,0,36.8,7,50.9,21.1S352,84.2,352,104z
	"/>
</svg>
