<?xml version="1.0" encoding="utf-8"?>
<!-- Generator: Adobe Illustrator 20.0.0, SVG Export Plug-In . SVG Version: 6.00 Build 0)  -->
<svg version="1.1" id="Layer_1" xmlns="http://www.w3.org/2000/svg" xmlns:xlink="http://www.w3.org/1999/xlink" x="0px" y="0px"
	 viewBox="0 0 448 448" style="enable-background:new 0 0 448 448;" xml:space="preserve">
<style type="text/css">
	.st0{display:none;}
	.st1{display:inline;}
	.st2{opacity:0.3;fill:none;enable-background:new    ;}
	.st3{fill:none;}
</style>
<g id="Grid" class="st0">
	<g id="icomoon-ignore" class="st1">
		<line class="st2" x1="16" y1="0" x2="16" y2="448"/>
		<line class="st3" x1="32" y1="0" x2="32" y2="448"/>
		<line class="st2" x1="48" y1="0" x2="48" y2="448"/>
		<line class="st3" x1="64" y1="0" x2="64" y2="448"/>
		<line class="st2" x1="80" y1="0" x2="80" y2="448"/>
		<line class="st3" x1="96" y1="0" x2="96" y2="448"/>
		<line class="st2" x1="112" y1="0" x2="112" y2="448"/>
		<line class="st3" x1="128" y1="0" x2="128" y2="448"/>
		<line class="st2" x1="144" y1="0" x2="144" y2="448"/>
		<line class="st3" x1="160" y1="0" x2="160" y2="448"/>
		<line class="st2" x1="176" y1="0" x2="176" y2="448"/>
		<line class="st3" x1="192" y1="0" x2="192" y2="448"/>
		<line class="st2" x1="208" y1="0" x2="208" y2="448"/>
		<line class="st3" x1="224" y1="0" x2="224" y2="448"/>
		<line class="st2" x1="240" y1="0" x2="240" y2="448"/>
		<line class="st3" x1="256" y1="0" x2="256" y2="448"/>
		<line class="st2" x1="272" y1="0" x2="272" y2="448"/>
		<line class="st3" x1="288" y1="0" x2="288" y2="448"/>
		<line class="st2" x1="304" y1="0" x2="304" y2="448"/>
		<line class="st3" x1="320" y1="0" x2="320" y2="448"/>
		<line class="st2" x1="336" y1="0" x2="336" y2="448"/>
		<line class="st3" x1="352" y1="0" x2="352" y2="448"/>
		<line class="st2" x1="368" y1="0" x2="368" y2="448"/>
		<line class="st3" x1="384" y1="0" x2="384" y2="448"/>
		<line class="st2" x1="400" y1="0" x2="400" y2="448"/>
		<line class="st3" x1="416" y1="0" x2="416" y2="448"/>
		<line class="st2" x1="432" y1="0" x2="432" y2="448"/>
		<line class="st2" x1="0" y1="16" x2="448" y2="16"/>
		<line class="st3" x1="0" y1="32" x2="448" y2="32"/>
		<line class="st2" x1="0" y1="48" x2="448" y2="48"/>
		<line class="st3" x1="0" y1="64" x2="448" y2="64"/>
		<line class="st2" x1="0" y1="80" x2="448" y2="80"/>
		<line class="st3" x1="0" y1="96" x2="448" y2="96"/>
		<line class="st2" x1="0" y1="112" x2="448" y2="112"/>
		<line class="st3" x1="0" y1="128" x2="448" y2="128"/>
		<line class="st2" x1="0" y1="144" x2="448" y2="144"/>
		<line class="st3" x1="0" y1="160" x2="448" y2="160"/>
		<line class="st2" x1="0" y1="176" x2="448" y2="176"/>
		<line class="st3" x1="0" y1="192" x2="448" y2="192"/>
		<line class="st2" x1="0" y1="208" x2="448" y2="208"/>
		<line class="st3" x1="0" y1="224" x2="448" y2="224"/>
		<line class="st2" x1="0" y1="240" x2="448" y2="240"/>
		<line class="st3" x1="0" y1="256" x2="448" y2="256"/>
		<line class="st2" x1="0" y1="272" x2="448" y2="272"/>
		<line class="st3" x1="0" y1="288" x2="448" y2="288"/>
		<line class="st2" x1="0" y1="304" x2="448" y2="304"/>
		<line class="st3" x1="0" y1="320" x2="448" y2="320"/>
		<line class="st2" x1="0" y1="336" x2="448" y2="336"/>
		<line class="st3" x1="0" y1="352" x2="448" y2="352"/>
		<line class="st2" x1="0" y1="368" x2="448" y2="368"/>
		<line class="st3" x1="0" y1="384" x2="448" y2="384"/>
		<line class="st2" x1="0" y1="400" x2="448" y2="400"/>
		<line class="st3" x1="0" y1="416" x2="448" y2="416"/>
		<line class="st2" x1="0" y1="432" x2="448" y2="432"/>
	</g>
</g>
<path id="Icon" d="M224,33c26,0,50.8,5.1,74.5,15.2s44.1,23.8,61.2,41s30.8,37.6,41,61.2S416,199,416,225c0,28.7-6,55.9-18.1,81.8
	c-12.1,25.8-29.1,47.8-51.1,66c-1.7,1.2-3.5,1.7-5.6,1.6s-3.8-0.8-5.1-2.1L301.5,338c-1.5-1.7-2.2-3.8-2.2-6.2
	c0.3-2.7,1.3-4.6,3-5.8c15.8-12.2,28.1-27.1,36.8-44.8s13-36.4,13-56.2c0-17.3-3.4-33.9-10.1-49.6s-16-29.4-27.5-40.9
	s-25.1-20.6-40.9-27.4S241.3,97,224,97s-33.9,3.4-49.6,10.1S145,123,133.5,134.5s-20.6,25.1-27.4,40.9S96,207.7,96,225
	c0,16.3,3,32,8.9,47s14.4,28.3,25.4,40l34.5-34.2c5-5.2,10.8-6.3,17.2-3.5c6.7,2.8,10,7.8,10,14.8v112c0,4.3-1.6,8.1-4.8,11.2
	s-6.9,4.8-11.2,4.8H64c-7,0-11.9-3.3-14.8-10c-2.8-6.5-1.7-12.2,3.5-17.2L85,357.2c-16.8-17.8-29.9-38.2-39.1-61.1
	C36.6,273.2,32,249.5,32,225c0-26,5.1-50.8,15.2-74.5s23.8-44.1,41-61.2s37.6-30.8,61.2-41S198,33,224,33z"/>
</svg>
