<?xml version="1.0" encoding="utf-8"?>
<!-- Generator: Adobe Illustrator 21.0.2, SVG Export Plug-In . SVG Version: 6.00 Build 0)  -->
<svg version="1.1" id="Layer_1" xmlns="http://www.w3.org/2000/svg" xmlns:xlink="http://www.w3.org/1999/xlink" x="0px" y="0px"
	 viewBox="0 0 448 448" style="enable-background:new 0 0 448 448;" xml:space="preserve">
<style type="text/css">
	.st0{display:none;}
	.st1{display:inline;}
	.st2{fill:none;}
</style>
<g id="Grid" class="st0">
	<g id="icomoon-ignore" class="st1">
		<line class="st2" x1="16" y1="0" x2="16" y2="448"/>
		<line class="st2" x1="32" y1="0" x2="32" y2="448"/>
		<line class="st2" x1="48" y1="0" x2="48" y2="448"/>
		<line class="st2" x1="64" y1="0" x2="64" y2="448"/>
		<line class="st2" x1="80" y1="0" x2="80" y2="448"/>
		<line class="st2" x1="96" y1="0" x2="96" y2="448"/>
		<line class="st2" x1="112" y1="0" x2="112" y2="448"/>
		<line class="st2" x1="128" y1="0" x2="128" y2="448"/>
		<line class="st2" x1="144" y1="0" x2="144" y2="448"/>
		<line class="st2" x1="160" y1="0" x2="160" y2="448"/>
		<line class="st2" x1="176" y1="0" x2="176" y2="448"/>
		<line class="st2" x1="192" y1="0" x2="192" y2="448"/>
		<line class="st2" x1="208" y1="0" x2="208" y2="448"/>
		<line class="st2" x1="224" y1="0" x2="224" y2="448"/>
		<line class="st2" x1="240" y1="0" x2="240" y2="448"/>
		<line class="st2" x1="256" y1="0" x2="256" y2="448"/>
		<line class="st2" x1="272" y1="0" x2="272" y2="448"/>
		<line class="st2" x1="288" y1="0" x2="288" y2="448"/>
		<line class="st2" x1="304" y1="0" x2="304" y2="448"/>
		<line class="st2" x1="320" y1="0" x2="320" y2="448"/>
		<line class="st2" x1="336" y1="0" x2="336" y2="448"/>
		<line class="st2" x1="352" y1="0" x2="352" y2="448"/>
		<line class="st2" x1="368" y1="0" x2="368" y2="448"/>
		<line class="st2" x1="384" y1="0" x2="384" y2="448"/>
		<line class="st2" x1="400" y1="0" x2="400" y2="448"/>
		<line class="st2" x1="416" y1="0" x2="416" y2="448"/>
		<line class="st2" x1="432" y1="0" x2="432" y2="448"/>
		<line class="st2" x1="0" y1="16" x2="448" y2="16"/>
		<line class="st2" x1="0" y1="32" x2="448" y2="32"/>
		<line class="st2" x1="0" y1="48" x2="448" y2="48"/>
		<line class="st2" x1="0" y1="64" x2="448" y2="64"/>
		<line class="st2" x1="0" y1="80" x2="448" y2="80"/>
		<line class="st2" x1="0" y1="96" x2="448" y2="96"/>
		<line class="st2" x1="0" y1="112" x2="448" y2="112"/>
		<line class="st2" x1="0" y1="128" x2="448" y2="128"/>
		<line class="st2" x1="0" y1="144" x2="448" y2="144"/>
		<line class="st2" x1="0" y1="160" x2="448" y2="160"/>
		<line class="st2" x1="0" y1="176" x2="448" y2="176"/>
		<line class="st2" x1="0" y1="192" x2="448" y2="192"/>
		<line class="st2" x1="0" y1="208" x2="448" y2="208"/>
		<line class="st2" x1="0" y1="224" x2="448" y2="224"/>
		<line class="st2" x1="0" y1="240" x2="448" y2="240"/>
		<line class="st2" x1="0" y1="256" x2="448" y2="256"/>
		<line class="st2" x1="0" y1="272" x2="448" y2="272"/>
		<line class="st2" x1="0" y1="288" x2="448" y2="288"/>
		<line class="st2" x1="0" y1="304" x2="448" y2="304"/>
		<line class="st2" x1="0" y1="320" x2="448" y2="320"/>
		<line class="st2" x1="0" y1="336" x2="448" y2="336"/>
		<line class="st2" x1="0" y1="352" x2="448" y2="352"/>
		<line class="st2" x1="0" y1="368" x2="448" y2="368"/>
		<line class="st2" x1="0" y1="384" x2="448" y2="384"/>
		<line class="st2" x1="0" y1="400" x2="448" y2="400"/>
		<line class="st2" x1="0" y1="416" x2="448" y2="416"/>
		<line class="st2" x1="0" y1="432" x2="448" y2="432"/>
	</g>
</g>
<path id="Icon" d="M411.3,212.2L400,200.9l0,0l-68.2-68.2c-6.2-6.2-16.4-6.2-22.6,0L297.9,144c-6.2,6.2-6.2,16.4,0,22.6l56.5,57.3
	l-56.5,56.5c-6.2,6.2-6.2,16.4,0,22.6l11.3,11.3c6.2,6.2,16.4,6.2,22.6,0l68.2-68.2l11.3-11.3C417.6,228.6,417.6,218.4,411.3,212.2z
	 M207.8,220.3c0-0.5-0.1-1-0.2-1.6c-0.1-0.5-0.2-1-0.3-1.5s-0.2-1-0.3-1.5s-0.3-1-0.4-1.5c-0.2-0.5-0.3-1-0.5-1.5s-0.4-1-0.6-1.5
	s-0.4-1-0.6-1.4c-0.2-0.5-0.4-0.9-0.7-1.4c-0.2-0.5-0.5-0.9-0.8-1.4c-0.3-0.4-0.6-0.9-0.8-1.3c-0.3-0.4-0.6-0.9-0.9-1.3
	s-0.6-0.8-1-1.2s-0.7-0.8-1-1.2c-0.4-0.4-0.7-0.8-1.1-1.2c-0.4-0.4-0.8-0.7-1.1-1.1c-0.4-0.4-0.8-0.7-1.2-1s-0.8-0.6-1.2-1
	s-0.9-0.6-1.3-0.9c-0.4-0.3-0.9-0.6-1.3-0.8c-0.5-0.3-0.9-0.5-1.4-0.8c-0.5-0.2-0.9-0.5-1.4-0.7s-1-0.4-1.4-0.6
	c-0.5-0.2-1-0.4-1.5-0.6c-0.5-0.2-1-0.3-1.5-0.5c-0.5-0.1-1-0.3-1.5-0.4c-0.5-0.1-1-0.2-1.5-0.3s-1-0.2-1.5-0.3s-1-0.1-1.6-0.2
	c-0.5,0-1.1-0.1-1.6-0.1c-1-0.1-2.1-0.1-3.2,0c-0.5,0-1.1,0.1-1.6,0.1c-0.5,0.1-1,0.1-1.6,0.2c-0.5,0.1-1,0.2-1.5,0.3
	s-1,0.2-1.5,0.3s-1,0.3-1.5,0.4c-0.5,0.2-1,0.3-1.5,0.5s-1,0.4-1.5,0.6c-0.5,0.2-1,0.4-1.4,0.6c-0.5,0.2-0.9,0.5-1.4,0.7
	s-0.9,0.5-1.4,0.8c-0.4,0.3-0.9,0.5-1.3,0.8c-0.4,0.3-0.9,0.6-1.3,0.9s-0.8,0.6-1.2,1c-0.4,0.3-0.8,0.7-1.2,1s-0.8,0.7-1.2,1.1
	c-0.4,0.4-0.7,0.8-1.1,1.2c-0.4,0.4-0.7,0.8-1,1.2s-0.7,0.8-1,1.2s-0.6,0.9-0.9,1.3c-0.3,0.4-0.6,0.9-0.8,1.3
	c-0.3,0.4-0.5,0.9-0.8,1.4c-0.2,0.5-0.5,0.9-0.7,1.4s-0.4,1-0.6,1.4c-0.2,0.5-0.4,1-0.6,1.5c-0.2,0.5-0.3,1-0.5,1.5s-0.3,1-0.4,1.5
	c-0.1,0.5-0.2,1-0.3,1.5s-0.2,1-0.3,1.5s-0.1,1-0.2,1.6c0,0.5-0.1,1.1-0.1,1.6s0,1.1,0,1.6s0,1,0,1.6c0,0.5,0.1,1,0.1,1.6
	c0.1,0.5,0.1,1,0.2,1.6c0.1,0.5,0.2,1,0.3,1.5s0.2,1,0.3,1.5s0.3,1,0.4,1.5c0.1,0.5,0.3,1,0.5,1.5s0.4,1,0.6,1.5
	c0.2,0.5,0.4,1,0.6,1.4c0.2,0.5,0.5,0.9,0.7,1.4s0.5,0.9,0.8,1.4c0.3,0.4,0.5,0.9,0.8,1.3c0.3,0.4,0.6,0.9,0.9,1.3s0.6,0.8,1,1.2
	c0.3,0.4,0.7,0.8,1,1.2s0.7,0.8,1.1,1.2c0.4,0.4,0.8,0.7,1.2,1.1c0.4,0.3,0.8,0.7,1.2,1s0.8,0.7,1.2,1s0.9,0.6,1.3,0.9
	c0.4,0.3,0.9,0.6,1.3,0.8c0.4,0.3,0.9,0.5,1.4,0.8s0.9,0.5,1.4,0.7s1,0.4,1.4,0.6s1,0.4,1.5,0.6c0.5,0.2,1,0.3,1.5,0.5
	s1,0.3,1.5,0.4c0.5,0.1,1,0.2,1.5,0.4c0.5,0.1,1,0.2,1.5,0.3s1,0.1,1.6,0.2s1.1,0.1,1.6,0.1s1.1,0,1.6,0s1,0,1.6,0
	c0.5,0,1.1-0.1,1.6-0.1s1-0.1,1.6-0.2c0.5-0.1,1-0.2,1.5-0.3s1-0.2,1.5-0.4c0.5-0.1,1-0.3,1.5-0.4c0.5-0.1,1-0.3,1.5-0.5
	s1-0.4,1.5-0.6s1-0.4,1.4-0.6c0.5-0.2,0.9-0.5,1.4-0.7s0.9-0.5,1.4-0.8c0.4-0.3,0.9-0.5,1.3-0.8c0.4-0.3,0.9-0.6,1.3-0.9
	c0.4-0.3,0.8-0.6,1.2-1c0.4-0.3,0.8-0.7,1.2-1c0.4-0.4,0.8-0.7,1.1-1.1s0.7-0.8,1.1-1.2c0.4-0.4,0.7-0.8,1-1.2s0.6-0.8,1-1.2
	s0.6-0.8,0.9-1.3c0.3-0.4,0.6-0.9,0.8-1.3c0.3-0.4,0.5-0.9,0.8-1.4c0.2-0.5,0.5-0.9,0.7-1.4s0.4-1,0.6-1.4c0.2-0.5,0.4-1,0.6-1.5
	c0.2-0.5,0.3-1,0.5-1.5c0.1-0.5,0.3-1,0.4-1.5c0.1-0.5,0.2-1,0.3-1.5s0.2-1,0.3-1.5s0.1-1,0.2-1.6c0-0.5,0.1-1,0.1-1.6
	c0-0.5,0-1.1,0-1.6s0-1.1,0-1.6C207.9,221.4,207.9,220.9,207.8,220.3z M303.8,220.3c0-0.5-0.1-1-0.2-1.6c-0.1-0.5-0.2-1-0.3-1.5
	c-0.1-0.5-0.2-1-0.3-1.5c-0.1-0.5-0.3-1-0.4-1.5c-0.2-0.5-0.3-1-0.5-1.5s-0.4-1-0.6-1.5s-0.4-1-0.6-1.4c-0.2-0.5-0.5-0.9-0.7-1.4
	s-0.5-0.9-0.8-1.4c-0.3-0.4-0.5-0.9-0.8-1.3c-0.3-0.4-0.6-0.9-0.9-1.3c-0.3-0.4-0.6-0.8-1-1.2c-0.3-0.4-0.7-0.8-1-1.2
	c-0.4-0.4-0.7-0.8-1.1-1.2s-0.8-0.7-1.2-1.1c-0.4-0.3-0.8-0.7-1.2-1c-0.4-0.3-0.8-0.7-1.2-1c-0.4-0.3-0.8-0.6-1.3-0.9
	c-0.4-0.3-0.9-0.6-1.3-0.8c-0.4-0.3-0.9-0.5-1.4-0.8c-0.5-0.2-0.9-0.5-1.4-0.7s-1-0.4-1.4-0.6c-0.5-0.2-1-0.4-1.5-0.6
	c-0.5-0.2-1-0.3-1.5-0.5c-0.5-0.1-1-0.3-1.5-0.4c-0.5-0.1-1-0.2-1.5-0.3s-1-0.2-1.5-0.3s-1-0.1-1.6-0.2c-0.5,0-1-0.1-1.6-0.1
	c-1-0.1-2.1-0.1-3.2,0c-0.5,0-1,0.1-1.6,0.1c-0.5,0.1-1,0.1-1.6,0.2c-0.5,0.1-1,0.2-1.5,0.3s-1,0.2-1.5,0.3s-1,0.3-1.5,0.4
	c-0.5,0.2-1,0.3-1.5,0.5s-1,0.4-1.5,0.6c-0.5,0.2-1,0.4-1.4,0.6c-0.5,0.2-0.9,0.5-1.4,0.7s-0.9,0.5-1.4,0.8
	c-0.4,0.3-0.9,0.5-1.3,0.8c-0.4,0.3-0.9,0.6-1.3,0.9c-0.4,0.3-0.8,0.6-1.2,1c-0.4,0.3-0.8,0.7-1.2,1c-0.4,0.4-0.8,0.7-1.1,1.1
	c-0.4,0.4-0.7,0.8-1.1,1.2c-0.3,0.4-0.7,0.8-1,1.2s-0.7,0.8-1,1.2s-0.6,0.9-0.9,1.3c-0.3,0.4-0.6,0.9-0.8,1.3
	c-0.3,0.4-0.5,0.9-0.8,1.4c-0.2,0.5-0.5,0.9-0.7,1.4s-0.4,1-0.6,1.4c-0.2,0.5-0.4,1-0.6,1.5c-0.2,0.5-0.3,1-0.5,1.5
	c-0.1,0.5-0.3,1-0.4,1.5c-0.1,0.5-0.2,1-0.3,1.5s-0.2,1-0.3,1.5s-0.1,1-0.2,1.6c-0.1,0.5-0.1,1.1-0.1,1.6s0,1.1,0,1.6s0,1,0,1.6
	c0,0.5,0.1,1,0.1,1.6c0,0.5,0.1,1,0.2,1.6c0.1,0.5,0.2,1,0.3,1.5s0.2,1,0.3,1.5s0.3,1,0.4,1.5c0.2,0.5,0.3,1,0.5,1.5s0.4,1,0.6,1.5
	c0.2,0.5,0.4,1,0.6,1.4c0.2,0.5,0.5,0.9,0.7,1.4s0.5,0.9,0.8,1.4c0.3,0.4,0.5,0.9,0.8,1.3c0.3,0.4,0.6,0.9,0.9,1.3
	c0.3,0.4,0.6,0.8,1,1.2c0.3,0.4,0.7,0.8,1,1.2c0.4,0.4,0.7,0.8,1.1,1.2s0.8,0.7,1.1,1.1c0.4,0.3,0.8,0.7,1.2,1s0.8,0.6,1.2,1
	c0.4,0.3,0.8,0.6,1.3,0.9c0.4,0.3,0.9,0.6,1.3,0.8c0.5,0.3,0.9,0.5,1.4,0.8c0.5,0.2,0.9,0.5,1.4,0.7s1,0.4,1.4,0.6
	c0.5,0.2,1,0.4,1.5,0.6c0.5,0.2,1,0.3,1.5,0.5s1,0.3,1.5,0.4c0.5,0.1,1,0.2,1.5,0.3s1,0.2,1.5,0.3s1,0.1,1.6,0.2
	c0.5,0.1,1,0.1,1.6,0.1c0.5,0,1.1,0,1.6,0s1,0,1.6,0c0.5,0,1-0.1,1.6-0.1c0.5,0,1-0.1,1.6-0.2c0.5-0.1,1-0.2,1.5-0.3s1-0.2,1.5-0.3
	s1-0.3,1.5-0.4c0.5-0.2,1-0.3,1.5-0.5s1-0.4,1.5-0.6c0.5-0.2,1-0.4,1.4-0.6c0.5-0.2,0.9-0.5,1.4-0.7s0.9-0.5,1.4-0.8
	c0.4-0.3,0.9-0.5,1.3-0.8s0.9-0.6,1.3-0.9c0.4-0.3,0.8-0.6,1.2-1c0.4-0.3,0.8-0.7,1.2-1c0.4-0.4,0.8-0.7,1.2-1.1s0.7-0.8,1.1-1.2
	c0.3-0.4,0.7-0.8,1-1.2s0.6-0.8,1-1.2c0.3-0.4,0.6-0.8,0.9-1.3c0.3-0.4,0.6-0.9,0.8-1.3c0.3-0.4,0.5-0.9,0.8-1.4
	c0.2-0.5,0.5-0.9,0.7-1.4s0.4-1,0.6-1.4c0.2-0.5,0.4-1,0.6-1.5s0.3-1,0.5-1.5s0.3-1,0.4-1.5s0.2-1,0.3-1.5c0.1-0.5,0.2-1,0.3-1.5
	c0.1-0.5,0.1-1,0.2-1.6c0-0.5,0.1-1,0.1-1.6c0-0.5,0-1.1,0-1.6s0-1.1,0-1.6C303.9,221.4,303.9,220.9,303.8,220.3z M150.1,144
	l-11.3-11.3c-6.2-6.2-16.4-6.2-22.6,0L48,200.9l0,0l-11.3,11.3c-6.3,6.2-6.3,16.4,0,22.6L48,246.1l68.2,68.2
	c6.2,6.2,16.4,6.2,22.6,0l11.3-11.3c6.2-6.2,6.2-16.4,0-22.6l-56.5-56.5l56.5-57.3C156.3,160.4,156.3,150.2,150.1,144z"/>
</svg>
