<?xml version="1.0" encoding="utf-8"?>
<!-- Generator: Adobe Illustrator 20.0.0, SVG Export Plug-In . SVG Version: 6.00 Build 0)  -->
<svg version="1.1" id="Layer_1" xmlns="http://www.w3.org/2000/svg" xmlns:xlink="http://www.w3.org/1999/xlink" x="0px" y="0px"
	 viewBox="0 0 448 448" style="enable-background:new 0 0 448 448;" xml:space="preserve">
<style type="text/css">
	.st0{display:none;}
	.st1{display:inline;}
	.st2{fill:none;}
</style>
<g id="Grid" class="st0">
	<g id="icomoon-ignore" class="st1">
		<line class="st2" x1="16" y1="0" x2="16" y2="448"/>
		<line class="st2" x1="32" y1="0" x2="32" y2="448"/>
		<line class="st2" x1="48" y1="0" x2="48" y2="448"/>
		<line class="st2" x1="64" y1="0" x2="64" y2="448"/>
		<line class="st2" x1="80" y1="0" x2="80" y2="448"/>
		<line class="st2" x1="96" y1="0" x2="96" y2="448"/>
		<line class="st2" x1="112" y1="0" x2="112" y2="448"/>
		<line class="st2" x1="128" y1="0" x2="128" y2="448"/>
		<line class="st2" x1="144" y1="0" x2="144" y2="448"/>
		<line class="st2" x1="160" y1="0" x2="160" y2="448"/>
		<line class="st2" x1="176" y1="0" x2="176" y2="448"/>
		<line class="st2" x1="192" y1="0" x2="192" y2="448"/>
		<line class="st2" x1="208" y1="0" x2="208" y2="448"/>
		<line class="st2" x1="224" y1="0" x2="224" y2="448"/>
		<line class="st2" x1="240" y1="0" x2="240" y2="448"/>
		<line class="st2" x1="256" y1="0" x2="256" y2="448"/>
		<line class="st2" x1="272" y1="0" x2="272" y2="448"/>
		<line class="st2" x1="288" y1="0" x2="288" y2="448"/>
		<line class="st2" x1="304" y1="0" x2="304" y2="448"/>
		<line class="st2" x1="320" y1="0" x2="320" y2="448"/>
		<line class="st2" x1="336" y1="0" x2="336" y2="448"/>
		<line class="st2" x1="352" y1="0" x2="352" y2="448"/>
		<line class="st2" x1="368" y1="0" x2="368" y2="448"/>
		<line class="st2" x1="384" y1="0" x2="384" y2="448"/>
		<line class="st2" x1="400" y1="0" x2="400" y2="448"/>
		<line class="st2" x1="416" y1="0" x2="416" y2="448"/>
		<line class="st2" x1="432" y1="0" x2="432" y2="448"/>
		<line class="st2" x1="0" y1="16" x2="448" y2="16"/>
		<line class="st2" x1="0" y1="32" x2="448" y2="32"/>
		<line class="st2" x1="0" y1="48" x2="448" y2="48"/>
		<line class="st2" x1="0" y1="64" x2="448" y2="64"/>
		<line class="st2" x1="0" y1="80" x2="448" y2="80"/>
		<line class="st2" x1="0" y1="96" x2="448" y2="96"/>
		<line class="st2" x1="0" y1="112" x2="448" y2="112"/>
		<line class="st2" x1="0" y1="128" x2="448" y2="128"/>
		<line class="st2" x1="0" y1="144" x2="448" y2="144"/>
		<line class="st2" x1="0" y1="160" x2="448" y2="160"/>
		<line class="st2" x1="0" y1="176" x2="448" y2="176"/>
		<line class="st2" x1="0" y1="192" x2="448" y2="192"/>
		<line class="st2" x1="0" y1="208" x2="448" y2="208"/>
		<line class="st2" x1="0" y1="224" x2="448" y2="224"/>
		<line class="st2" x1="0" y1="240" x2="448" y2="240"/>
		<line class="st2" x1="0" y1="256" x2="448" y2="256"/>
		<line class="st2" x1="0" y1="272" x2="448" y2="272"/>
		<line class="st2" x1="0" y1="288" x2="448" y2="288"/>
		<line class="st2" x1="0" y1="304" x2="448" y2="304"/>
		<line class="st2" x1="0" y1="320" x2="448" y2="320"/>
		<line class="st2" x1="0" y1="336" x2="448" y2="336"/>
		<line class="st2" x1="0" y1="352" x2="448" y2="352"/>
		<line class="st2" x1="0" y1="368" x2="448" y2="368"/>
		<line class="st2" x1="0" y1="384" x2="448" y2="384"/>
		<line class="st2" x1="0" y1="400" x2="448" y2="400"/>
		<line class="st2" x1="0" y1="416" x2="448" y2="416"/>
		<line class="st2" x1="0" y1="432" x2="448" y2="432"/>
	</g>
</g>
<path id="Icon" d="M80,168c6.7,0,12.3-2.3,17-7s7-10.3,7-17s-2.3-12.3-7-17s-10.3-7-17-7s-12.3,2.3-17,7s-7,10.3-7,17s2.3,12.3,7,17
	S73.3,168,80,168z M368,168c6.7,0,12.3-2.3,17-7s7-10.3,7-17s-2.3-12.3-7-17s-10.3-7-17-7s-12.3,2.3-17,7s-7,10.3-7,17
	s2.3,12.3,7,17S361.3,168,368,168z M336,328c6.7,0,12.3-2.3,17-7s7-10.3,7-17s-2.3-12.3-7-17s-10.3-7-17-7s-12.3,2.3-17,7
	s-7,10.3-7,17s2.3,12.3,7,17S329.3,328,336,328z M336,352c-8.7,0-16.7-2.2-24.1-6.5s-13.2-10.2-17.4-17.5
	c-47.8-0.3-82.3-19.2-103.5-56.5c-6.3-11.3-13.1-28.2-20.2-50.8c-6.7-21.3-12.6-35.5-17.8-42.4c-5.2-6.9-13.5-10.4-25-10.4h-6.5
	c-4.2,7.3-10,13.2-17.4,17.5s-15.5,6.5-24.1,6.5c-13.3,0-24.7-4.7-34-14s-14-20.7-14-34s4.7-24.7,14-34s20.7-14,34-14
	c8.7,0,16.7,2.2,24.1,6.5s13.2,10.2,17.4,17.5h205c4.2-7.3,10-13.2,17.4-17.5S359.3,96,368,96c13.3,0,24.7,4.7,34,14s14,20.7,14,34
	s-4.7,24.7-14,34s-20.7,14-34,14c-8.7,0-16.7-2.2-24.1-6.5s-13.2-10.2-17.4-17.5H202.2c4.3,9,9.1,21.8,14.2,38.5
	c2.8,9.2,5.3,16.5,7.4,21.9c2.1,5.4,4.7,11.3,7.8,17.6s6.4,11.2,9.9,14.8s7.8,6.9,12.8,10.1s10.8,5.6,17.4,7s14.2,2.1,22.9,2.1
	c4.2-7.3,10-13.2,17.4-17.5s15.5-6.5,24.1-6.5c13.3,0,24.7,4.7,34,14s14,20.7,14,34s-4.7,24.7-14,34S349.3,352,336,352z"/>
</svg>
