<?xml version="1.0" encoding="utf-8"?>
<!-- Generator: Adobe Illustrator 21.0.2, SVG Export Plug-In . SVG Version: 6.00 Build 0)  -->
<svg version="1.1" id="Layer_1" xmlns="http://www.w3.org/2000/svg" xmlns:xlink="http://www.w3.org/1999/xlink" x="0px" y="0px"
	 viewBox="0 0 448 448" style="enable-background:new 0 0 448 448;" xml:space="preserve">
<style type="text/css">
	.st0{display:none;}
	.st1{display:inline;}
	.st2{fill:none;}
	.st3{fill:#FFFFFF;}
</style>
<g id="Grid" class="st0">
	<g id="icomoon-ignore" class="st1">
		<line class="st2" x1="15" y1="-1" x2="15" y2="447"/>
		<line class="st2" x1="31" y1="-1" x2="31" y2="447"/>
		<line class="st2" x1="47" y1="-1" x2="47" y2="447"/>
		<line class="st2" x1="63" y1="-1" x2="63" y2="447"/>
		<line class="st2" x1="79" y1="-1" x2="79" y2="447"/>
		<line class="st2" x1="95" y1="-1" x2="95" y2="447"/>
		<line class="st2" x1="111" y1="-1" x2="111" y2="447"/>
		<line class="st2" x1="127" y1="-1" x2="127" y2="447"/>
		<line class="st2" x1="143" y1="-1" x2="143" y2="447"/>
		<line class="st2" x1="159" y1="-1" x2="159" y2="447"/>
		<line class="st2" x1="175" y1="-1" x2="175" y2="447"/>
		<line class="st2" x1="191" y1="-1" x2="191" y2="447"/>
		<line class="st2" x1="207" y1="-1" x2="207" y2="447"/>
		<line class="st2" x1="223" y1="-1" x2="223" y2="447"/>
		<line class="st2" x1="239" y1="-1" x2="239" y2="447"/>
		<line class="st2" x1="255" y1="-1" x2="255" y2="447"/>
		<line class="st2" x1="271" y1="-1" x2="271" y2="447"/>
		<line class="st2" x1="287" y1="-1" x2="287" y2="447"/>
		<line class="st2" x1="303" y1="-1" x2="303" y2="447"/>
		<line class="st2" x1="319" y1="-1" x2="319" y2="447"/>
		<line class="st2" x1="335" y1="-1" x2="335" y2="447"/>
		<line class="st2" x1="351" y1="-1" x2="351" y2="447"/>
		<line class="st2" x1="367" y1="-1" x2="367" y2="447"/>
		<line class="st2" x1="383" y1="-1" x2="383" y2="447"/>
		<line class="st2" x1="399" y1="-1" x2="399" y2="447"/>
		<line class="st2" x1="415" y1="-1" x2="415" y2="447"/>
		<line class="st2" x1="431" y1="-1" x2="431" y2="447"/>
		<line class="st2" x1="-1" y1="15" x2="447" y2="15"/>
		<line class="st2" x1="-1" y1="31" x2="447" y2="31"/>
		<line class="st2" x1="-1" y1="47" x2="447" y2="47"/>
		<line class="st2" x1="-1" y1="63" x2="447" y2="63"/>
		<line class="st2" x1="-1" y1="79" x2="447" y2="79"/>
		<line class="st2" x1="-1" y1="95" x2="447" y2="95"/>
		<line class="st2" x1="-1" y1="111" x2="447" y2="111"/>
		<line class="st2" x1="-1" y1="127" x2="447" y2="127"/>
		<line class="st2" x1="-1" y1="143" x2="447" y2="143"/>
		<line class="st2" x1="-1" y1="159" x2="447" y2="159"/>
		<line class="st2" x1="-1" y1="175" x2="447" y2="175"/>
		<line class="st2" x1="-1" y1="191" x2="447" y2="191"/>
		<line class="st2" x1="-1" y1="207" x2="447" y2="207"/>
		<line class="st2" x1="-1" y1="223" x2="447" y2="223"/>
		<line class="st2" x1="-1" y1="239" x2="447" y2="239"/>
		<line class="st2" x1="-1" y1="255" x2="447" y2="255"/>
		<line class="st2" x1="-1" y1="271" x2="447" y2="271"/>
		<line class="st2" x1="-1" y1="287" x2="447" y2="287"/>
		<line class="st2" x1="-1" y1="303" x2="447" y2="303"/>
		<line class="st2" x1="-1" y1="319" x2="447" y2="319"/>
		<line class="st2" x1="-1" y1="335" x2="447" y2="335"/>
		<line class="st2" x1="-1" y1="351" x2="447" y2="351"/>
		<line class="st2" x1="-1" y1="367" x2="447" y2="367"/>
		<line class="st2" x1="-1" y1="383" x2="447" y2="383"/>
		<line class="st2" x1="-1" y1="399" x2="447" y2="399"/>
		<line class="st2" x1="-1" y1="415" x2="447" y2="415"/>
		<line class="st2" x1="-1" y1="431" x2="447" y2="431"/>
	</g>
</g>
<path id="Background" class="st3" d="M223,447.9c-123.7,0-224-100.3-224-224S99.3-0.1,223-0.1s224,100.3,224,224
	S346.7,447.9,223,447.9z"/>
<path id="Icon" d="M224,408c-101.5,0-184-82.5-184-184S122.5,40,224,40s184,82.5,184,184S325.5,408,224,408z M224,56
	c-92.6,0-168,75.4-168,168s75.4,168,168,168s168-75.4,168-168S316.6,56,224,56z M224,16c28.1,0,55.3,5.5,81,16.3
	c24.8,10.5,47,25.5,66.1,44.6s34.1,41.4,44.6,66.1c10.8,25.6,16.3,52.9,16.3,81s-5.5,55.3-16.3,81c-10.5,24.8-25.5,47-44.6,66.1
	s-41.4,34.1-66.1,44.6c-25.6,10.8-52.9,16.3-81,16.3s-55.3-5.5-81-16.3c-24.8-10.5-47-25.5-66.1-44.6S42.8,329.7,32.3,305
	C21.5,279.3,16,252.1,16,224s5.5-55.3,16.3-81c10.5-24.8,25.5-47,44.6-66.1s41.4-34.1,66.1-44.6C168.7,21.5,195.9,16,224,16 M224,0
	C100.3,0,0,100.3,0,224s100.3,224,224,224s224-100.3,224-224S347.7,0,224,0L224,0z"/>
</svg>
