<?xml version="1.0" encoding="utf-8"?>
<!-- Generator: Adobe Illustrator 20.0.0, SVG Export Plug-In . SVG Version: 6.00 Build 0)  -->
<svg version="1.1" id="Layer_1" xmlns="http://www.w3.org/2000/svg" xmlns:xlink="http://www.w3.org/1999/xlink" x="0px" y="0px"
	 viewBox="0 0 448 448" style="enable-background:new 0 0 448 448;" xml:space="preserve">
<style type="text/css">
	.st0{fill:none;}
	.st1{fill:#FF0000;stroke:#FFFFFF;stroke-miterlimit:10;}
</style>
<g id="Grid">
	<g id="icomoon-ignore">
		<line class="st0" x1="16" y1="0" x2="16" y2="448"/>
		<line class="st0" x1="32" y1="0" x2="32" y2="448"/>
		<line class="st0" x1="48" y1="0" x2="48" y2="448"/>
		<line class="st0" x1="64" y1="0" x2="64" y2="448"/>
		<line class="st0" x1="80" y1="0" x2="80" y2="448"/>
		<line class="st0" x1="96" y1="0" x2="96" y2="448"/>
		<line class="st0" x1="112" y1="0" x2="112" y2="448"/>
		<line class="st0" x1="128" y1="0" x2="128" y2="448"/>
		<line class="st0" x1="144" y1="0" x2="144" y2="448"/>
		<line class="st0" x1="160" y1="0" x2="160" y2="448"/>
		<line class="st0" x1="176" y1="0" x2="176" y2="448"/>
		<line class="st0" x1="192" y1="0" x2="192" y2="448"/>
		<line class="st0" x1="208" y1="0" x2="208" y2="448"/>
		<line class="st0" x1="224" y1="0" x2="224" y2="448"/>
		<line class="st0" x1="240" y1="0" x2="240" y2="448"/>
		<line class="st0" x1="256" y1="0" x2="256" y2="448"/>
		<line class="st0" x1="272" y1="0" x2="272" y2="448"/>
		<line class="st0" x1="288" y1="0" x2="288" y2="448"/>
		<line class="st0" x1="304" y1="0" x2="304" y2="448"/>
		<line class="st0" x1="320" y1="0" x2="320" y2="448"/>
		<line class="st0" x1="336" y1="0" x2="336" y2="448"/>
		<line class="st0" x1="352" y1="0" x2="352" y2="448"/>
		<line class="st0" x1="368" y1="0" x2="368" y2="448"/>
		<line class="st1" x1="384" y1="0" x2="384" y2="448"/>
		<line class="st0" x1="400" y1="0" x2="400" y2="448"/>
		<line class="st0" x1="416" y1="0" x2="416" y2="448"/>
		<line class="st0" x1="432" y1="0" x2="432" y2="448"/>
		<line class="st0" x1="0" y1="16" x2="448" y2="16"/>
		<line class="st0" x1="0" y1="32" x2="448" y2="32"/>
		<line class="st0" x1="0" y1="48" x2="448" y2="48"/>
		<line class="st0" x1="0" y1="64" x2="448" y2="64"/>
		<line class="st0" x1="0" y1="80" x2="448" y2="80"/>
		<line class="st0" x1="0" y1="96" x2="448" y2="96"/>
		<line class="st0" x1="0" y1="112" x2="448" y2="112"/>
		<line class="st0" x1="0" y1="128" x2="448" y2="128"/>
		<line class="st0" x1="0" y1="144" x2="448" y2="144"/>
		<line class="st0" x1="0" y1="160" x2="448" y2="160"/>
		<line class="st0" x1="0" y1="176" x2="448" y2="176"/>
		<line class="st0" x1="0" y1="192" x2="448" y2="192"/>
		<line class="st0" x1="0" y1="208" x2="448" y2="208"/>
		<line class="st0" x1="0" y1="224" x2="448" y2="224"/>
		<line class="st0" x1="0" y1="240" x2="448" y2="240"/>
		<line class="st0" x1="0" y1="256" x2="448" y2="256"/>
		<line class="st0" x1="0" y1="272" x2="448" y2="272"/>
		<line class="st0" x1="0" y1="288" x2="448" y2="288"/>
		<line class="st0" x1="0" y1="304" x2="448" y2="304"/>
		<line class="st0" x1="0" y1="320" x2="448" y2="320"/>
		<line class="st0" x1="0" y1="336" x2="448" y2="336"/>
		<line class="st0" x1="0" y1="352" x2="448" y2="352"/>
		<line class="st0" x1="0" y1="368" x2="448" y2="368"/>
		<line class="st0" x1="0" y1="384" x2="448" y2="384"/>
		<line class="st0" x1="0" y1="400" x2="448" y2="400"/>
		<line class="st0" x1="0" y1="416" x2="448" y2="416"/>
		<line class="st0" x1="0" y1="432" x2="448" y2="432"/>
	</g>
</g>
<g id="Icon">
	<g>
		<path d="M384,100.6v246.8L260.9,224L384,100.6 M191.9,101.6v244.7L69.8,223.9L191.9,101.6 M410.2,32c-1.8,0-3.9,1.2-6.4,3.6
			L227.1,212.7c-1.3,1.3-2.4,2.9-3.2,4.8V40.4c0-4.3-1.1-7-3.2-8c-0.5-0.2-1.1-0.4-1.6-0.4c-1.8,0-3.9,1.2-6.4,3.6l-177,177.1
			c-3.2,3.2-4.8,6.9-4.8,11.2s1.6,8.1,4.8,11.2l176.9,177.1c2.4,2.4,4.5,3.6,6.4,3.6c0.6,0,1.1-0.1,1.6-0.4c2.2-1,3.2-3.7,3.2-8
			V230.5c0.8,1.7,1.9,3.2,3.2,4.8l176.9,177.1c2.4,2.4,4.5,3.6,6.4,3.6c0.6,0,1.1-0.1,1.6-0.4c2.2-1,4.2-3.7,4.2-8V40.4
			c0-4.3-2.1-7-4.2-8C411.3,32.1,410.8,32,410.2,32L410.2,32z"/>
	</g>
</g>
</svg>
